<svg width="48" height="48" viewBox="0 0 48 48" fill="none" xmlns="http://www.w3.org/2000/svg">
<path d="M12 21C12 20.4477 12.4477 20 13 20H16.1716C16.9672 20 17.7303 19.6839 18.2929 19.1213L22.2929 15.1213C22.9229 14.4914 24 14.9375 24 15.8284V32.1716C24 33.0625 22.9229 33.5086 22.2929 32.8787L18.2929 28.8787C17.7303 28.3161 16.9672 28 16.1716 28H13C12.4477 28 12 27.5523 12 27V21Z" stroke="white" stroke-width="2"/>
<path d="M31 17C34 20.5 34 27.5 31 31" stroke="white" stroke-width="2"/>
<path d="M33 14C37.718 18.9911 37.6863 29.0048 33 34" stroke="white" stroke-width="2"/>
<path d="M29 20C30.3333 22 30.3333 26 29 28" stroke="white" stroke-width="2"/>
</svg>
